<svg xmlns="http://www.w3.org/2000/svg" viewBox="0 0 100 100">
  <defs>
    <linearGradient id="grad" x1="0%" y1="0%" x2="100%" y2="100%">
      <stop offset="0%" stop-color="#34d399" />
      <stop offset="100%" stop-color="#06b6d4" />
    </linearGradient>
  </defs>
  <rect width="100" height="100" rx="25" fill="url(#grad)" />
  <g transform="translate(20, 20) scale(2.5)" stroke="white" fill="none" stroke-width="2.5" stroke-linecap="round" stroke-linejoin="round">
    <path d="M20 13c0 5-3.5 7.5-7.66 8.95a1 1 0 0 1-.67-.01C7.5 20.5 4 18 4 13V6a1 1 0 0 1 1-1c2-1 4-2 7-2 2.5 0 4.5 1 6 2a1 1 0 0 1 1 1v7z"/>
    <path d="m9 12 2 2 4-4"/>
  </g>
</svg>
